<?xml version="1.0" encoding="UTF-8"?>
<svg version="1.1" xmlns="http://www.w3.org/2000/svg" width="45" height="45">
<path d="M0 0 C0.79196777 0.00193359 1.58393555 0.00386719 2.39990234 0.00585938 C8.77898366 0.05241257 15.09456315 0.42852066 21.4375 1.125 C22 3.0625 22 3.0625 22.4375 5.125 C21.4375 6.125 21.4375 6.125 18.05859375 6.22265625 C16.66402923 6.21598369 15.26948257 6.20402532 13.875 6.1875 C13.16408203 6.18298828 12.45316406 6.17847656 11.72070312 6.17382812 C9.95959987 6.16200864 8.19853964 6.14407263 6.4375 6.125 C6.1075 8.105 5.7775 10.085 5.4375 12.125 C4.4475 11.795 3.4575 11.465 2.4375 11.125 C2.4375 10.465 2.4375 9.805 2.4375 9.125 C1.1175 8.795 -0.2025 8.465 -1.5625 8.125 C-1.5625 9.115 -1.5625 10.105 -1.5625 11.125 C-3.5425 10.465 -5.5225 9.805 -7.5625 9.125 C-7.5625 8.465 -7.5625 7.805 -7.5625 7.125 C-8.2225 7.125 -8.8825 7.125 -9.5625 7.125 C-9.8925 8.445 -10.2225 9.765 -10.5625 11.125 C-11.2225 10.795 -11.8825 10.465 -12.5625 10.125 C-12.2325 8.805 -11.9025 7.485 -11.5625 6.125 C-12.2225 6.125 -12.8825 6.125 -13.5625 6.125 C-13.5625 4.475 -13.5625 2.825 -13.5625 1.125 C-9.01645321 -0.01377116 -4.65277481 -0.02730616 0 0 Z " fill="#45A1B3" transform="translate(18.5625,24.875)"/>
<path d="M0 0 C2.08477638 1.43777681 2.81239178 2.59798239 3.875 4.875 C4.0630374 8.07163582 2.98605476 9.55053246 1 12 C-1.90427811 13.11703004 -3.32054957 13.2453571 -6.25 12.1875 C-8 11 -8 11 -9 9 C-9.44720497 3.74534161 -9.44720497 3.74534161 -7.875 1.125 C-5.11909116 -0.52854531 -3.14924548 -0.39365568 0 0 Z " fill="#FDFDFD" transform="translate(14,8)"/>
<path d="M0 0 C2.33294775 -0.04241723 4.66702567 -0.04092937 7 0 C7.33 0.33 7.66 0.66 8 1 C9.42175335 0.85606216 10.83833369 0.65953361 12.25 0.4375 C16.08336271 -0.05160529 18.52527388 0.09450503 22 2 C21.67 3.32 21.34 4.64 21 6 C15.58264203 6.93402724 12.19548425 7.20808081 7 5 C7 5.66 7 6.32 7 7 C4.69 7 2.38 7 0 7 C0 4.69 0 2.38 0 0 Z " fill="#FDFDFD" transform="translate(19,11)"/>
</svg>
